<svg viewBox="0 0 600 320" xmlns="http://www.w3.org/2000/svg" role="img" aria-label="Map showing university campus location">
  <defs>
    <linearGradient id="bg" x1="0" y1="0" x2="1" y2="1">
      <stop offset="0%" stop-color="#4B3F8F"/>
      <stop offset="100%" stop-color="#211C42"/>
    </linearGradient>
  </defs>
  <rect width="600" height="320" fill="url(#bg)"/>
  <g stroke="#7A6FBE" stroke-width="1.4" opacity="0.55">
    <path d="M0 60 H600"/><path d="M0 120 H600"/><path d="M0 180 H600"/><path d="M0 240 H600"/>
    <path d="M90 0 V320"/><path d="M210 0 V320"/><path d="M330 0 V320"/><path d="M450 0 V320"/><path d="M540 0 V320"/>
  </g>
  <path d="M0 150 C 150 100, 250 220, 420 160 S 600 120, 600 120" stroke="#D9A94D" stroke-width="4" fill="none" opacity="0.85"/>
  <path d="M60 0 C 120 90, 40 180, 130 320" stroke="#3F8F6B" stroke-width="3" fill="none" opacity="0.6"/>
  <g>
    <circle cx="330" cy="160" r="14" fill="#D9A94D" opacity="0.25"/>
    <path d="M330 130 c18 0 30 14 30 30 c0 22-30 44-30 44 s-30-22-30-44 c0-16 12-30 30-30z" fill="#D9A94D"/>
    <circle cx="330" cy="160" r="10" fill="#211C42"/>
  </g>
  <circle cx="150" cy="90" r="5" fill="#EDE9F8"/>
  <circle cx="470" cy="210" r="5" fill="#EDE9F8"/>
  <circle cx="230" cy="250" r="5" fill="#EDE9F8"/>
</svg>
